{
  "accessors": [
    {
      "bufferView": 2,
      "componentType": 5126,
      "count": 7838,
      "max": [
        2.235405206680298,
        0.9440197944641113,
        17.22461700439453
      ],
      "min": [
        -0.8512498140335083,
        -1.3877769708633423,
        -0.19051839411258698
      ],
      "type": "VEC3"
    },
    {
      "bufferView": 2,
      "byteOffset": 94056,
      "componentType": 5126,
      "count": 7838,
      "max": [
        0.9999216794967651,
        0.999996542930603,
        0.7738025188446045
      ],
      "min": [
        -0.9999476075172424,
        -0.9999842643737793,
        -0.9986483454704285
      ],
      "type": "VEC3"
    },
    {
      "bufferView": 1,
      "componentType": 5126,
      "count": 7838,
      "max": [
        0.9958106875419617,
        0.9950876832008362
      ],
      "min": [
        0.007586866617202759,
        0.004912316799163818
      ],
      "type": "VEC2"
    },
    {
      "bufferView": 1,
      "byteOffset": 62704,
      "componentType": 5126,
      "count": 7838,
      "max": [
        0.9958106875419617,
        0.9950876832008362
      ],
      "min": [
        0.007586866617202759,
        0.004912316799163818
      ],
      "type": "VEC2"
    },
    {
      "bufferView": 0,
      "componentType": 5125,
      "count": 42624,
      "type": "SCALAR"
    }
  ],
  "asset": {
    "extras": {
      "author": "Andrii Kryshtop (https://sketchfab.com/Senetin)",
      "license": "CC-BY-4.0 (http://creativecommons.org/licenses/by/4.0/)",
      "source": "https://sketchfab.com/3d-models/tulip-e27ce03d41c14949bc147983b818c242",
      "title": "Tulip"
    },
    "generator": "Sketchfab-16.13.0",
    "version": "2.0"
  },
  "bufferViews": [
    {
      "buffer": 0,
      "byteLength": 170496,
      "name": "floatBufferViews",
      "target": 34963
    },
    {
      "buffer": 0,
      "byteLength": 125408,
      "byteOffset": 170496,
      "byteStride": 8,
      "name": "floatBufferViews",
      "target": 34962
    },
    {
      "buffer": 0,
      "byteLength": 188112,
      "byteOffset": 295904,
      "byteStride": 12,
      "name": "floatBufferViews",
      "target": 34962
    }
  ],
  "buffers": [
    {
      "byteLength": 484016,
      "uri": "scene.bin"
    }
  ],
  "images": [
    {
      "uri": "textures/Tulip_BaseColor_baseColor.png"
    },
    {
      "uri": "textures/Tulip_BaseColor_metallicRoughness.png"
    }
  ],
  "materials": [
    {
      "doubleSided": true,
      "name": "Tulip_BaseColor",
      "occlusionTexture": {
        "index": 1
      },
      "pbrMetallicRoughness": {
        "baseColorTexture": {
          "index": 0
        },
        "metallicFactor": 0.0,
        "metallicRoughnessTexture": {
          "index": 1
        }
      }
    }
  ],
  "meshes": [
    {
      "name": "Tulip_Tulip_BaseColor_0",
      "primitives": [
        {
          "attributes": {
            "NORMAL": 1,
            "POSITION": 0,
            "TEXCOORD_0": 2,
            "TEXCOORD_1": 3
          },
          "indices": 4,
          "material": 0,
          "mode": 4
        }
      ]
    }
  ],
  "nodes": [
    {
      "children": [
        1
      ],
      "matrix": [
        1.0,
        0.0,
        0.0,
        0.0,
        0.0,
        2.220446049250313e-16,
        -1.0,
        0.0,
        0.0,
        1.0,
        2.220446049250313e-16,
        0.0,
        0.0,
        0.0,
        0.0,
        1.0
      ],
      "name": "Sketchfab_model"
    },
    {
      "children": [
        2
      ],
      "matrix": [
        0.009999999776482582,
        0.0,
        0.0,
        0.0,
        0.0,
        0.0,
        0.009999999776482582,
        0.0,
        0.0,
        -0.009999999776482582,
        0.0,
        0.0,
        0.0,
        0.0,
        0.0,
        1.0
      ],
      "name": "32dabb02e31e46fb9564bbfab875a941.fbx"
    },
    {
      "children": [
        3
      ],
      "name": "RootNode"
    },
    {
      "children": [
        4
      ],
      "matrix": [
        2.4557642936706543,
        0.0,
        0.0,
        0.0,
        0.0,
        -4.00094787151024e-07,
        -2.455764293670622,
        0.0,
        0.0,
        2.455764293670622,
        -4.00094787151024e-07,
        0.0,
        0.0,
        -5.9604644775390625e-06,
        0.0,
        1.0
      ],
      "name": "Tulip"
    },
    {
      "mesh": 0,
      "name": "Tulip_Tulip_BaseColor_0"
    }
  ],
  "samplers": [
    {
      "magFilter": 9729,
      "minFilter": 9987,
      "wrapS": 10497,
      "wrapT": 10497
    }
  ],
  "scene": 0,
  "scenes": [
    {
      "name": "Sketchfab_Scene",
      "nodes": [
        0
      ]
    }
  ],
  "textures": [
    {
      "sampler": 0,
      "source": 0
    },
    {
      "sampler": 0,
      "source": 1
    }
  ]
}
